<svg xmlns="http://www.w3.org/2000/svg" version="1.1" xmlns:xlink="http://www.w3.org/1999/xlink" xmlns:svgjs="http://svgjs.com/svgjs" width="2560" height="1080" preserveAspectRatio="none" viewBox="0 0 2560 1080"><g mask="url(&quot;#SvgjsMask1003&quot;)" fill="none"><rect width="2560" height="1080" x="0" y="0" fill="rgba(0, 0, 0, 1)"></rect><path d="M75.51 760.42L140.47 797.92L140.47 872.92L75.51 910.42L10.56 872.92L10.56 797.92zM10.56 872.92L75.51 910.42L75.51 985.42L10.56 1022.92L-54.39 985.42L-54.39 910.42zM75.51 985.42L140.47 1022.92L140.47 1097.92L75.51 1135.42L10.56 1097.92L10.56 1022.92zM205.42 85.42L270.38 122.92L270.38 197.92L205.42 235.42L140.47 197.92L140.47 122.92zM205.42 535.42L270.38 572.92L270.38 647.92L205.42 685.42L140.47 647.92L140.47 572.92zM270.38 197.92L335.33 235.42L335.33 310.42L270.38 347.92L205.42 310.42L205.42 235.42zM270.38 872.92L335.33 910.42L335.33 985.42L270.38 1022.92L205.42 985.42L205.42 910.42zM270.38 1097.92L335.33 1135.42L335.33 1210.42L270.38 1247.92L205.42 1210.42L205.42 1135.42zM465.24 310.42L530.19 347.92L530.19 422.92L465.24 460.42L400.28 422.92L400.28 347.92zM465.24 535.42L530.19 572.92L530.19 647.92L465.24 685.42L400.28 647.92L400.28 572.92zM400.28 1097.92L465.24 1135.42L465.24 1210.42L400.28 1247.92L335.33 1210.42L335.33 1135.42zM530.19 197.92L595.14 235.42L595.14 310.42L530.19 347.92L465.24 310.42L465.24 235.42zM660.1 -27.08L725.05 10.42L725.05 85.42L660.1 122.92L595.14 85.42L595.14 10.42zM725.05 85.42L790 122.92L790 197.92L725.05 235.42L660.1 197.92L660.1 122.92zM660.1 647.92L725.05 685.42L725.05 760.42L660.1 797.92L595.14 760.42L595.14 685.42zM660.1 1097.92L725.05 1135.42L725.05 1210.42L660.1 1247.92L595.14 1210.42L595.14 1135.42zM790 1097.92L854.96 1135.42L854.96 1210.42L790 1247.92L725.05 1210.42L725.05 1135.42zM984.87 85.42L1049.82 122.92L1049.82 197.92L984.87 235.42L919.91 197.92L919.91 122.92zM1049.82 872.92L1114.77 910.42L1114.77 985.42L1049.82 1022.92L984.87 985.42L984.87 910.42zM1244.68 535.42L1309.63 572.92L1309.63 647.92L1244.68 685.42L1179.73 647.92L1179.73 572.92zM1179.73 872.92L1244.68 910.42L1244.68 985.42L1179.73 1022.92L1114.77 985.42L1114.77 910.42zM1374.59 85.42L1439.54 122.92L1439.54 197.92L1374.59 235.42L1309.63 197.92L1309.63 122.92zM1309.63 422.92L1374.59 460.42L1374.59 535.42L1309.63 572.92L1244.68 535.42L1244.68 460.42zM1374.59 535.42L1439.54 572.92L1439.54 647.92L1374.59 685.42L1309.63 647.92L1309.63 572.92zM1309.63 872.92L1374.59 910.42L1374.59 985.42L1309.63 1022.92L1244.68 985.42L1244.68 910.42zM1309.63 1097.92L1374.59 1135.42L1374.59 1210.42L1309.63 1247.92L1244.68 1210.42L1244.68 1135.42zM1504.5 310.42L1569.45 347.92L1569.45 422.92L1504.5 460.42L1439.54 422.92L1439.54 347.92zM1439.54 647.92L1504.5 685.42L1504.5 760.42L1439.54 797.92L1374.59 760.42L1374.59 685.42zM1569.45 -27.08L1634.4 10.42L1634.4 85.42L1569.45 122.92L1504.5 85.42L1504.5 10.42zM1569.45 647.92L1634.4 685.42L1634.4 760.42L1569.45 797.92L1504.5 760.42L1504.5 685.42zM1569.45 872.92L1634.4 910.42L1634.4 985.42L1569.45 1022.92L1504.5 985.42L1504.5 910.42zM1634.4 985.42L1699.36 1022.92L1699.36 1097.92L1634.4 1135.42L1569.45 1097.92L1569.45 1022.92zM1569.45 1097.92L1634.4 1135.42L1634.4 1210.42L1569.45 1247.92L1504.5 1210.42L1504.5 1135.42zM1764.31 760.42L1829.26 797.92L1829.26 872.92L1764.31 910.42L1699.36 872.92L1699.36 797.92zM1699.36 872.92L1764.31 910.42L1764.31 985.42L1699.36 1022.92L1634.4 985.42L1634.4 910.42zM1894.22 535.42L1959.17 572.92L1959.17 647.92L1894.22 685.42L1829.26 647.92L1829.26 572.92zM1894.22 985.42L1959.17 1022.92L1959.17 1097.92L1894.22 1135.42L1829.26 1097.92L1829.26 1022.92zM1829.26 1097.92L1894.22 1135.42L1894.22 1210.42L1829.26 1247.92L1764.31 1210.42L1764.31 1135.42zM2024.13 85.42L2089.08 122.92L2089.08 197.92L2024.13 235.42L1959.17 197.92L1959.17 122.92zM1959.17 422.92L2024.13 460.42L2024.13 535.42L1959.17 572.92L1894.22 535.42L1894.22 460.42zM2089.08 -27.08L2154.03 10.42L2154.03 85.42L2089.08 122.92L2024.13 85.42L2024.13 10.42zM2089.08 422.92L2154.03 460.42L2154.03 535.42L2089.08 572.92L2024.13 535.42L2024.13 460.42zM2089.08 872.92L2154.03 910.42L2154.03 985.42L2089.08 1022.92L2024.13 985.42L2024.13 910.42zM2283.94 535.42L2348.89 572.92L2348.89 647.92L2283.94 685.42L2218.99 647.92L2218.99 572.92zM2283.94 760.42L2348.89 797.92L2348.89 872.92L2283.94 910.42L2218.99 872.92L2218.99 797.92zM2218.99 872.92L2283.94 910.42L2283.94 985.42L2218.99 1022.92L2154.03 985.42L2154.03 910.42zM2348.89 -27.08L2413.85 10.42L2413.85 85.42L2348.89 122.92L2283.94 85.42L2283.94 10.42zM2348.89 647.92L2413.85 685.42L2413.85 760.42L2348.89 797.92L2283.94 760.42L2283.94 685.42zM2413.85 985.42L2478.8 1022.92L2478.8 1097.92L2413.85 1135.42L2348.89 1097.92L2348.89 1022.92zM2478.8 197.92L2543.76 235.42L2543.76 310.42L2478.8 347.92L2413.85 310.42L2413.85 235.42zM2543.76 985.42L2608.71 1022.92L2608.71 1097.92L2543.76 1135.42L2478.8 1097.92L2478.8 1022.92z" stroke="#03305d" stroke-width="2"></path><path d="M68.01 760.42 a7.5 7.5 0 1 0 15 0 a7.5 7.5 0 1 0 -15 0zM132.97 797.92 a7.5 7.5 0 1 0 15 0 a7.5 7.5 0 1 0 -15 0zM132.97 872.92 a7.5 7.5 0 1 0 15 0 a7.5 7.5 0 1 0 -15 0zM68.01 910.42 a7.5 7.5 0 1 0 15 0 a7.5 7.5 0 1 0 -15 0zM3.06 872.92 a7.5 7.5 0 1 0 15 0 a7.5 7.5 0 1 0 -15 0zM3.06 797.92 a7.5 7.5 0 1 0 15 0 a7.5 7.5 0 1 0 -15 0zM68.01 985.42 a7.5 7.5 0 1 0 15 0 a7.5 7.5 0 1 0 -15 0zM3.06 1022.92 a7.5 7.5 0 1 0 15 0 a7.5 7.5 0 1 0 -15 0zM-61.89 985.42 a7.5 7.5 0 1 0 15 0 a7.5 7.5 0 1 0 -15 0zM-61.89 910.42 a7.5 7.5 0 1 0 15 0 a7.5 7.5 0 1 0 -15 0zM132.97 1022.92 a7.5 7.5 0 1 0 15 0 a7.5 7.5 0 1 0 -15 0zM132.97 1097.92 a7.5 7.5 0 1 0 15 0 a7.5 7.5 0 1 0 -15 0zM68.01 1135.42 a7.5 7.5 0 1 0 15 0 a7.5 7.5 0 1 0 -15 0zM3.06 1097.92 a7.5 7.5 0 1 0 15 0 a7.5 7.5 0 1 0 -15 0zM197.92 85.42 a7.5 7.5 0 1 0 15 0 a7.5 7.5 0 1 0 -15 0zM262.88 122.92 a7.5 7.5 0 1 0 15 0 a7.5 7.5 0 1 0 -15 0zM262.88 197.92 a7.5 7.5 0 1 0 15 0 a7.5 7.5 0 1 0 -15 0zM197.92 235.42 a7.5 7.5 0 1 0 15 0 a7.5 7.5 0 1 0 -15 0zM132.97 197.92 a7.5 7.5 0 1 0 15 0 a7.5 7.5 0 1 0 -15 0zM132.97 122.92 a7.5 7.5 0 1 0 15 0 a7.5 7.5 0 1 0 -15 0zM197.92 535.42 a7.5 7.5 0 1 0 15 0 a7.5 7.5 0 1 0 -15 0zM262.88 572.92 a7.5 7.5 0 1 0 15 0 a7.5 7.5 0 1 0 -15 0zM262.88 647.92 a7.5 7.5 0 1 0 15 0 a7.5 7.5 0 1 0 -15 0zM197.92 685.42 a7.5 7.5 0 1 0 15 0 a7.5 7.5 0 1 0 -15 0zM132.97 647.92 a7.5 7.5 0 1 0 15 0 a7.5 7.5 0 1 0 -15 0zM132.97 572.92 a7.5 7.5 0 1 0 15 0 a7.5 7.5 0 1 0 -15 0zM327.83 235.42 a7.5 7.5 0 1 0 15 0 a7.5 7.5 0 1 0 -15 0zM327.83 310.42 a7.5 7.5 0 1 0 15 0 a7.5 7.5 0 1 0 -15 0zM262.88 347.92 a7.5 7.5 0 1 0 15 0 a7.5 7.5 0 1 0 -15 0zM197.92 310.42 a7.5 7.5 0 1 0 15 0 a7.5 7.5 0 1 0 -15 0zM262.88 872.92 a7.5 7.5 0 1 0 15 0 a7.5 7.5 0 1 0 -15 0zM327.83 910.42 a7.5 7.5 0 1 0 15 0 a7.5 7.5 0 1 0 -15 0zM327.83 985.42 a7.5 7.5 0 1 0 15 0 a7.5 7.5 0 1 0 -15 0zM262.88 1022.92 a7.5 7.5 0 1 0 15 0 a7.5 7.5 0 1 0 -15 0zM197.92 985.42 a7.5 7.5 0 1 0 15 0 a7.5 7.5 0 1 0 -15 0zM197.92 910.42 a7.5 7.5 0 1 0 15 0 a7.5 7.5 0 1 0 -15 0zM262.88 1097.92 a7.5 7.5 0 1 0 15 0 a7.5 7.5 0 1 0 -15 0zM327.83 1135.42 a7.5 7.5 0 1 0 15 0 a7.5 7.5 0 1 0 -15 0zM327.83 1210.42 a7.5 7.5 0 1 0 15 0 a7.5 7.5 0 1 0 -15 0zM262.88 1247.92 a7.5 7.5 0 1 0 15 0 a7.5 7.5 0 1 0 -15 0zM197.92 1210.42 a7.5 7.5 0 1 0 15 0 a7.5 7.5 0 1 0 -15 0zM197.92 1135.42 a7.5 7.5 0 1 0 15 0 a7.5 7.5 0 1 0 -15 0zM457.74 310.42 a7.5 7.5 0 1 0 15 0 a7.5 7.5 0 1 0 -15 0zM522.69 347.92 a7.5 7.5 0 1 0 15 0 a7.5 7.5 0 1 0 -15 0zM522.69 422.92 a7.5 7.5 0 1 0 15 0 a7.5 7.5 0 1 0 -15 0zM457.74 460.42 a7.5 7.5 0 1 0 15 0 a7.5 7.5 0 1 0 -15 0zM392.78 422.92 a7.5 7.5 0 1 0 15 0 a7.5 7.5 0 1 0 -15 0zM392.78 347.92 a7.5 7.5 0 1 0 15 0 a7.5 7.5 0 1 0 -15 0zM457.74 535.42 a7.5 7.5 0 1 0 15 0 a7.5 7.5 0 1 0 -15 0zM522.69 572.92 a7.5 7.5 0 1 0 15 0 a7.5 7.5 0 1 0 -15 0zM522.69 647.92 a7.5 7.5 0 1 0 15 0 a7.5 7.5 0 1 0 -15 0zM457.74 685.42 a7.5 7.5 0 1 0 15 0 a7.5 7.5 0 1 0 -15 0zM392.78 647.92 a7.5 7.5 0 1 0 15 0 a7.5 7.5 0 1 0 -15 0zM392.78 572.92 a7.5 7.5 0 1 0 15 0 a7.5 7.5 0 1 0 -15 0zM392.78 1097.92 a7.5 7.5 0 1 0 15 0 a7.5 7.5 0 1 0 -15 0zM457.74 1135.42 a7.5 7.5 0 1 0 15 0 a7.5 7.5 0 1 0 -15 0zM457.74 1210.42 a7.5 7.5 0 1 0 15 0 a7.5 7.5 0 1 0 -15 0zM392.78 1247.92 a7.5 7.5 0 1 0 15 0 a7.5 7.5 0 1 0 -15 0zM522.69 197.92 a7.5 7.5 0 1 0 15 0 a7.5 7.5 0 1 0 -15 0zM587.64 235.42 a7.5 7.5 0 1 0 15 0 a7.5 7.5 0 1 0 -15 0zM587.64 310.42 a7.5 7.5 0 1 0 15 0 a7.5 7.5 0 1 0 -15 0zM457.74 235.42 a7.5 7.5 0 1 0 15 0 a7.5 7.5 0 1 0 -15 0zM652.6 -27.08 a7.5 7.5 0 1 0 15 0 a7.5 7.5 0 1 0 -15 0zM717.55 10.42 a7.5 7.5 0 1 0 15 0 a7.5 7.5 0 1 0 -15 0zM717.55 85.42 a7.5 7.5 0 1 0 15 0 a7.5 7.5 0 1 0 -15 0zM652.6 122.92 a7.5 7.5 0 1 0 15 0 a7.5 7.5 0 1 0 -15 0zM587.64 85.42 a7.5 7.5 0 1 0 15 0 a7.5 7.5 0 1 0 -15 0zM587.64 10.42 a7.5 7.5 0 1 0 15 0 a7.5 7.5 0 1 0 -15 0zM782.5 122.92 a7.5 7.5 0 1 0 15 0 a7.5 7.5 0 1 0 -15 0zM782.5 197.92 a7.5 7.5 0 1 0 15 0 a7.5 7.5 0 1 0 -15 0zM717.55 235.42 a7.5 7.5 0 1 0 15 0 a7.5 7.5 0 1 0 -15 0zM652.6 197.92 a7.5 7.5 0 1 0 15 0 a7.5 7.5 0 1 0 -15 0zM652.6 647.92 a7.5 7.5 0 1 0 15 0 a7.5 7.5 0 1 0 -15 0zM717.55 685.42 a7.5 7.5 0 1 0 15 0 a7.5 7.5 0 1 0 -15 0zM717.55 760.42 a7.5 7.5 0 1 0 15 0 a7.5 7.5 0 1 0 -15 0zM652.6 797.92 a7.5 7.5 0 1 0 15 0 a7.5 7.5 0 1 0 -15 0zM587.64 760.42 a7.5 7.5 0 1 0 15 0 a7.5 7.5 0 1 0 -15 0zM587.64 685.42 a7.5 7.5 0 1 0 15 0 a7.5 7.5 0 1 0 -15 0zM652.6 1097.92 a7.5 7.5 0 1 0 15 0 a7.5 7.5 0 1 0 -15 0zM717.55 1135.42 a7.5 7.5 0 1 0 15 0 a7.5 7.5 0 1 0 -15 0zM717.55 1210.42 a7.5 7.5 0 1 0 15 0 a7.5 7.5 0 1 0 -15 0zM652.6 1247.92 a7.5 7.5 0 1 0 15 0 a7.5 7.5 0 1 0 -15 0zM587.64 1210.42 a7.5 7.5 0 1 0 15 0 a7.5 7.5 0 1 0 -15 0zM587.64 1135.42 a7.5 7.5 0 1 0 15 0 a7.5 7.5 0 1 0 -15 0zM782.5 1097.92 a7.5 7.5 0 1 0 15 0 a7.5 7.5 0 1 0 -15 0zM847.46 1135.42 a7.5 7.5 0 1 0 15 0 a7.5 7.5 0 1 0 -15 0zM847.46 1210.42 a7.5 7.5 0 1 0 15 0 a7.5 7.5 0 1 0 -15 0zM782.5 1247.92 a7.5 7.5 0 1 0 15 0 a7.5 7.5 0 1 0 -15 0zM977.37 85.42 a7.5 7.5 0 1 0 15 0 a7.5 7.5 0 1 0 -15 0zM1042.32 122.92 a7.5 7.5 0 1 0 15 0 a7.5 7.5 0 1 0 -15 0zM1042.32 197.92 a7.5 7.5 0 1 0 15 0 a7.5 7.5 0 1 0 -15 0zM977.37 235.42 a7.5 7.5 0 1 0 15 0 a7.5 7.5 0 1 0 -15 0zM912.41 197.92 a7.5 7.5 0 1 0 15 0 a7.5 7.5 0 1 0 -15 0zM912.41 122.92 a7.5 7.5 0 1 0 15 0 a7.5 7.5 0 1 0 -15 0zM1042.32 872.92 a7.5 7.5 0 1 0 15 0 a7.5 7.5 0 1 0 -15 0zM1107.27 910.42 a7.5 7.5 0 1 0 15 0 a7.5 7.5 0 1 0 -15 0zM1107.27 985.42 a7.5 7.5 0 1 0 15 0 a7.5 7.5 0 1 0 -15 0zM1042.32 1022.92 a7.5 7.5 0 1 0 15 0 a7.5 7.5 0 1 0 -15 0zM977.37 985.42 a7.5 7.5 0 1 0 15 0 a7.5 7.5 0 1 0 -15 0zM977.37 910.42 a7.5 7.5 0 1 0 15 0 a7.5 7.5 0 1 0 -15 0zM1237.18 535.42 a7.5 7.5 0 1 0 15 0 a7.5 7.5 0 1 0 -15 0zM1302.13 572.92 a7.5 7.5 0 1 0 15 0 a7.5 7.5 0 1 0 -15 0zM1302.13 647.92 a7.5 7.5 0 1 0 15 0 a7.5 7.5 0 1 0 -15 0zM1237.18 685.42 a7.5 7.5 0 1 0 15 0 a7.5 7.5 0 1 0 -15 0zM1172.23 647.92 a7.5 7.5 0 1 0 15 0 a7.5 7.5 0 1 0 -15 0zM1172.23 572.92 a7.5 7.5 0 1 0 15 0 a7.5 7.5 0 1 0 -15 0zM1172.23 872.92 a7.5 7.5 0 1 0 15 0 a7.5 7.5 0 1 0 -15 0zM1237.18 910.42 a7.5 7.5 0 1 0 15 0 a7.5 7.5 0 1 0 -15 0zM1237.18 985.42 a7.5 7.5 0 1 0 15 0 a7.5 7.5 0 1 0 -15 0zM1172.23 1022.92 a7.5 7.5 0 1 0 15 0 a7.5 7.5 0 1 0 -15 0zM1367.09 85.42 a7.5 7.5 0 1 0 15 0 a7.5 7.5 0 1 0 -15 0zM1432.04 122.92 a7.5 7.5 0 1 0 15 0 a7.5 7.5 0 1 0 -15 0zM1432.04 197.92 a7.5 7.5 0 1 0 15 0 a7.5 7.5 0 1 0 -15 0zM1367.09 235.42 a7.5 7.5 0 1 0 15 0 a7.5 7.5 0 1 0 -15 0zM1302.13 197.92 a7.5 7.5 0 1 0 15 0 a7.5 7.5 0 1 0 -15 0zM1302.13 122.92 a7.5 7.5 0 1 0 15 0 a7.5 7.5 0 1 0 -15 0zM1302.13 422.92 a7.5 7.5 0 1 0 15 0 a7.5 7.5 0 1 0 -15 0zM1367.09 460.42 a7.5 7.5 0 1 0 15 0 a7.5 7.5 0 1 0 -15 0zM1367.09 535.42 a7.5 7.5 0 1 0 15 0 a7.5 7.5 0 1 0 -15 0zM1237.18 460.42 a7.5 7.5 0 1 0 15 0 a7.5 7.5 0 1 0 -15 0zM1432.04 572.92 a7.5 7.5 0 1 0 15 0 a7.5 7.5 0 1 0 -15 0zM1432.04 647.92 a7.5 7.5 0 1 0 15 0 a7.5 7.5 0 1 0 -15 0zM1367.09 685.42 a7.5 7.5 0 1 0 15 0 a7.5 7.5 0 1 0 -15 0zM1302.13 872.92 a7.5 7.5 0 1 0 15 0 a7.5 7.5 0 1 0 -15 0zM1367.09 910.42 a7.5 7.5 0 1 0 15 0 a7.5 7.5 0 1 0 -15 0zM1367.09 985.42 a7.5 7.5 0 1 0 15 0 a7.5 7.5 0 1 0 -15 0zM1302.13 1022.92 a7.5 7.5 0 1 0 15 0 a7.5 7.5 0 1 0 -15 0zM1302.13 1097.92 a7.5 7.5 0 1 0 15 0 a7.5 7.5 0 1 0 -15 0zM1367.09 1135.42 a7.5 7.5 0 1 0 15 0 a7.5 7.5 0 1 0 -15 0zM1367.09 1210.42 a7.5 7.5 0 1 0 15 0 a7.5 7.5 0 1 0 -15 0zM1302.13 1247.92 a7.5 7.5 0 1 0 15 0 a7.5 7.5 0 1 0 -15 0zM1237.18 1210.42 a7.5 7.5 0 1 0 15 0 a7.5 7.5 0 1 0 -15 0zM1237.18 1135.42 a7.5 7.5 0 1 0 15 0 a7.5 7.5 0 1 0 -15 0zM1497 310.42 a7.5 7.5 0 1 0 15 0 a7.5 7.5 0 1 0 -15 0zM1561.95 347.92 a7.5 7.5 0 1 0 15 0 a7.5 7.5 0 1 0 -15 0zM1561.95 422.92 a7.5 7.5 0 1 0 15 0 a7.5 7.5 0 1 0 -15 0zM1497 460.42 a7.5 7.5 0 1 0 15 0 a7.5 7.5 0 1 0 -15 0zM1432.04 422.92 a7.5 7.5 0 1 0 15 0 a7.5 7.5 0 1 0 -15 0zM1432.04 347.92 a7.5 7.5 0 1 0 15 0 a7.5 7.5 0 1 0 -15 0zM1497 685.42 a7.5 7.5 0 1 0 15 0 a7.5 7.5 0 1 0 -15 0zM1497 760.42 a7.5 7.5 0 1 0 15 0 a7.5 7.5 0 1 0 -15 0zM1432.04 797.92 a7.5 7.5 0 1 0 15 0 a7.5 7.5 0 1 0 -15 0zM1367.09 760.42 a7.5 7.5 0 1 0 15 0 a7.5 7.5 0 1 0 -15 0zM1561.95 -27.08 a7.5 7.5 0 1 0 15 0 a7.5 7.5 0 1 0 -15 0zM1626.9 10.42 a7.5 7.5 0 1 0 15 0 a7.5 7.5 0 1 0 -15 0zM1626.9 85.42 a7.5 7.5 0 1 0 15 0 a7.5 7.5 0 1 0 -15 0zM1561.95 122.92 a7.5 7.5 0 1 0 15 0 a7.5 7.5 0 1 0 -15 0zM1497 85.42 a7.5 7.5 0 1 0 15 0 a7.5 7.5 0 1 0 -15 0zM1497 10.42 a7.5 7.5 0 1 0 15 0 a7.5 7.5 0 1 0 -15 0zM1561.95 647.92 a7.5 7.5 0 1 0 15 0 a7.5 7.5 0 1 0 -15 0zM1626.9 685.42 a7.5 7.5 0 1 0 15 0 a7.5 7.5 0 1 0 -15 0zM1626.9 760.42 a7.5 7.5 0 1 0 15 0 a7.5 7.5 0 1 0 -15 0zM1561.95 797.92 a7.5 7.5 0 1 0 15 0 a7.5 7.5 0 1 0 -15 0zM1561.95 872.92 a7.5 7.5 0 1 0 15 0 a7.5 7.5 0 1 0 -15 0zM1626.9 910.42 a7.5 7.5 0 1 0 15 0 a7.5 7.5 0 1 0 -15 0zM1626.9 985.42 a7.5 7.5 0 1 0 15 0 a7.5 7.5 0 1 0 -15 0zM1561.95 1022.92 a7.5 7.5 0 1 0 15 0 a7.5 7.5 0 1 0 -15 0zM1497 985.42 a7.5 7.5 0 1 0 15 0 a7.5 7.5 0 1 0 -15 0zM1497 910.42 a7.5 7.5 0 1 0 15 0 a7.5 7.5 0 1 0 -15 0zM1691.86 1022.92 a7.5 7.5 0 1 0 15 0 a7.5 7.5 0 1 0 -15 0zM1691.86 1097.92 a7.5 7.5 0 1 0 15 0 a7.5 7.5 0 1 0 -15 0zM1626.9 1135.42 a7.5 7.5 0 1 0 15 0 a7.5 7.5 0 1 0 -15 0zM1561.95 1097.92 a7.5 7.5 0 1 0 15 0 a7.5 7.5 0 1 0 -15 0zM1626.9 1210.42 a7.5 7.5 0 1 0 15 0 a7.5 7.5 0 1 0 -15 0zM1561.95 1247.92 a7.5 7.5 0 1 0 15 0 a7.5 7.5 0 1 0 -15 0zM1497 1210.42 a7.5 7.5 0 1 0 15 0 a7.5 7.5 0 1 0 -15 0zM1497 1135.42 a7.5 7.5 0 1 0 15 0 a7.5 7.5 0 1 0 -15 0zM1756.81 760.42 a7.5 7.5 0 1 0 15 0 a7.5 7.5 0 1 0 -15 0zM1821.76 797.92 a7.5 7.5 0 1 0 15 0 a7.5 7.5 0 1 0 -15 0zM1821.76 872.92 a7.5 7.5 0 1 0 15 0 a7.5 7.5 0 1 0 -15 0zM1756.81 910.42 a7.5 7.5 0 1 0 15 0 a7.5 7.5 0 1 0 -15 0zM1691.86 872.92 a7.5 7.5 0 1 0 15 0 a7.5 7.5 0 1 0 -15 0zM1691.86 797.92 a7.5 7.5 0 1 0 15 0 a7.5 7.5 0 1 0 -15 0zM1756.81 985.42 a7.5 7.5 0 1 0 15 0 a7.5 7.5 0 1 0 -15 0zM1886.72 535.42 a7.5 7.5 0 1 0 15 0 a7.5 7.5 0 1 0 -15 0zM1951.67 572.92 a7.5 7.5 0 1 0 15 0 a7.5 7.5 0 1 0 -15 0zM1951.67 647.92 a7.5 7.5 0 1 0 15 0 a7.5 7.5 0 1 0 -15 0zM1886.72 685.42 a7.5 7.5 0 1 0 15 0 a7.5 7.5 0 1 0 -15 0zM1821.76 647.92 a7.5 7.5 0 1 0 15 0 a7.5 7.5 0 1 0 -15 0zM1821.76 572.92 a7.5 7.5 0 1 0 15 0 a7.5 7.5 0 1 0 -15 0zM1886.72 985.42 a7.5 7.5 0 1 0 15 0 a7.5 7.5 0 1 0 -15 0zM1951.67 1022.92 a7.5 7.5 0 1 0 15 0 a7.5 7.5 0 1 0 -15 0zM1951.67 1097.92 a7.5 7.5 0 1 0 15 0 a7.5 7.5 0 1 0 -15 0zM1886.72 1135.42 a7.5 7.5 0 1 0 15 0 a7.5 7.5 0 1 0 -15 0zM1821.76 1097.92 a7.5 7.5 0 1 0 15 0 a7.5 7.5 0 1 0 -15 0zM1821.76 1022.92 a7.5 7.5 0 1 0 15 0 a7.5 7.5 0 1 0 -15 0zM1886.72 1210.42 a7.5 7.5 0 1 0 15 0 a7.5 7.5 0 1 0 -15 0zM1821.76 1247.92 a7.5 7.5 0 1 0 15 0 a7.5 7.5 0 1 0 -15 0zM1756.81 1210.42 a7.5 7.5 0 1 0 15 0 a7.5 7.5 0 1 0 -15 0zM1756.81 1135.42 a7.5 7.5 0 1 0 15 0 a7.5 7.5 0 1 0 -15 0zM2016.63 85.42 a7.5 7.5 0 1 0 15 0 a7.5 7.5 0 1 0 -15 0zM2081.58 122.92 a7.5 7.5 0 1 0 15 0 a7.5 7.5 0 1 0 -15 0zM2081.58 197.92 a7.5 7.5 0 1 0 15 0 a7.5 7.5 0 1 0 -15 0zM2016.63 235.42 a7.5 7.5 0 1 0 15 0 a7.5 7.5 0 1 0 -15 0zM1951.67 197.92 a7.5 7.5 0 1 0 15 0 a7.5 7.5 0 1 0 -15 0zM1951.67 122.92 a7.5 7.5 0 1 0 15 0 a7.5 7.5 0 1 0 -15 0zM1951.67 422.92 a7.5 7.5 0 1 0 15 0 a7.5 7.5 0 1 0 -15 0zM2016.63 460.42 a7.5 7.5 0 1 0 15 0 a7.5 7.5 0 1 0 -15 0zM2016.63 535.42 a7.5 7.5 0 1 0 15 0 a7.5 7.5 0 1 0 -15 0zM1886.72 460.42 a7.5 7.5 0 1 0 15 0 a7.5 7.5 0 1 0 -15 0zM2081.58 -27.08 a7.5 7.5 0 1 0 15 0 a7.5 7.5 0 1 0 -15 0zM2146.53 10.42 a7.5 7.5 0 1 0 15 0 a7.5 7.5 0 1 0 -15 0zM2146.53 85.42 a7.5 7.5 0 1 0 15 0 a7.5 7.5 0 1 0 -15 0zM2016.63 10.42 a7.5 7.5 0 1 0 15 0 a7.5 7.5 0 1 0 -15 0zM2081.58 422.92 a7.5 7.5 0 1 0 15 0 a7.5 7.5 0 1 0 -15 0zM2146.53 460.42 a7.5 7.5 0 1 0 15 0 a7.5 7.5 0 1 0 -15 0zM2146.53 535.42 a7.5 7.5 0 1 0 15 0 a7.5 7.5 0 1 0 -15 0zM2081.58 572.92 a7.5 7.5 0 1 0 15 0 a7.5 7.5 0 1 0 -15 0zM2081.58 872.92 a7.5 7.5 0 1 0 15 0 a7.5 7.5 0 1 0 -15 0zM2146.53 910.42 a7.5 7.5 0 1 0 15 0 a7.5 7.5 0 1 0 -15 0zM2146.53 985.42 a7.5 7.5 0 1 0 15 0 a7.5 7.5 0 1 0 -15 0zM2081.58 1022.92 a7.5 7.5 0 1 0 15 0 a7.5 7.5 0 1 0 -15 0zM2016.63 985.42 a7.5 7.5 0 1 0 15 0 a7.5 7.5 0 1 0 -15 0zM2016.63 910.42 a7.5 7.5 0 1 0 15 0 a7.5 7.5 0 1 0 -15 0zM2276.44 535.42 a7.5 7.5 0 1 0 15 0 a7.5 7.5 0 1 0 -15 0zM2341.39 572.92 a7.5 7.5 0 1 0 15 0 a7.5 7.5 0 1 0 -15 0zM2341.39 647.92 a7.5 7.5 0 1 0 15 0 a7.5 7.5 0 1 0 -15 0zM2276.44 685.42 a7.5 7.5 0 1 0 15 0 a7.5 7.5 0 1 0 -15 0zM2211.49 647.92 a7.5 7.5 0 1 0 15 0 a7.5 7.5 0 1 0 -15 0zM2211.49 572.92 a7.5 7.5 0 1 0 15 0 a7.5 7.5 0 1 0 -15 0zM2276.44 760.42 a7.5 7.5 0 1 0 15 0 a7.5 7.5 0 1 0 -15 0zM2341.39 797.92 a7.5 7.5 0 1 0 15 0 a7.5 7.5 0 1 0 -15 0zM2341.39 872.92 a7.5 7.5 0 1 0 15 0 a7.5 7.5 0 1 0 -15 0zM2276.44 910.42 a7.5 7.5 0 1 0 15 0 a7.5 7.5 0 1 0 -15 0zM2211.49 872.92 a7.5 7.5 0 1 0 15 0 a7.5 7.5 0 1 0 -15 0zM2211.49 797.92 a7.5 7.5 0 1 0 15 0 a7.5 7.5 0 1 0 -15 0zM2276.44 985.42 a7.5 7.5 0 1 0 15 0 a7.5 7.5 0 1 0 -15 0zM2211.49 1022.92 a7.5 7.5 0 1 0 15 0 a7.5 7.5 0 1 0 -15 0zM2341.39 -27.08 a7.5 7.5 0 1 0 15 0 a7.5 7.5 0 1 0 -15 0zM2406.35 10.42 a7.5 7.5 0 1 0 15 0 a7.5 7.5 0 1 0 -15 0zM2406.35 85.42 a7.5 7.5 0 1 0 15 0 a7.5 7.5 0 1 0 -15 0zM2341.39 122.92 a7.5 7.5 0 1 0 15 0 a7.5 7.5 0 1 0 -15 0zM2276.44 85.42 a7.5 7.5 0 1 0 15 0 a7.5 7.5 0 1 0 -15 0zM2276.44 10.42 a7.5 7.5 0 1 0 15 0 a7.5 7.5 0 1 0 -15 0zM2406.35 685.42 a7.5 7.5 0 1 0 15 0 a7.5 7.5 0 1 0 -15 0zM2406.35 760.42 a7.5 7.5 0 1 0 15 0 a7.5 7.5 0 1 0 -15 0zM2406.35 985.42 a7.5 7.5 0 1 0 15 0 a7.5 7.5 0 1 0 -15 0zM2471.3 1022.92 a7.5 7.5 0 1 0 15 0 a7.5 7.5 0 1 0 -15 0zM2471.3 1097.92 a7.5 7.5 0 1 0 15 0 a7.5 7.5 0 1 0 -15 0zM2406.35 1135.42 a7.5 7.5 0 1 0 15 0 a7.5 7.5 0 1 0 -15 0zM2341.39 1097.92 a7.5 7.5 0 1 0 15 0 a7.5 7.5 0 1 0 -15 0zM2341.39 1022.92 a7.5 7.5 0 1 0 15 0 a7.5 7.5 0 1 0 -15 0zM2471.3 197.92 a7.5 7.5 0 1 0 15 0 a7.5 7.5 0 1 0 -15 0zM2536.26 235.42 a7.5 7.5 0 1 0 15 0 a7.5 7.5 0 1 0 -15 0zM2536.26 310.42 a7.5 7.5 0 1 0 15 0 a7.5 7.5 0 1 0 -15 0zM2471.3 347.92 a7.5 7.5 0 1 0 15 0 a7.5 7.5 0 1 0 -15 0zM2406.35 310.42 a7.5 7.5 0 1 0 15 0 a7.5 7.5 0 1 0 -15 0zM2406.35 235.42 a7.5 7.5 0 1 0 15 0 a7.5 7.5 0 1 0 -15 0zM2536.26 985.42 a7.5 7.5 0 1 0 15 0 a7.5 7.5 0 1 0 -15 0zM2601.21 1022.92 a7.5 7.5 0 1 0 15 0 a7.5 7.5 0 1 0 -15 0zM2601.21 1097.92 a7.5 7.5 0 1 0 15 0 a7.5 7.5 0 1 0 -15 0zM2536.26 1135.42 a7.5 7.5 0 1 0 15 0 a7.5 7.5 0 1 0 -15 0z" fill="#03305d"></path><path d="M9.83 -41.13L53.13 -16.13L53.13 33.87L9.83 58.87L-33.47 33.87L-33.47 -16.13zM9.83 258.87L53.13 283.87L53.13 333.87L9.83 358.87L-33.47 333.87L-33.47 283.87zM53.13 333.87L96.44 358.87L96.44 408.87L53.13 433.87L9.83 408.87L9.83 358.87zM9.83 408.87L53.13 433.87L53.13 483.87L9.83 508.87L-33.47 483.87L-33.47 433.87zM53.13 633.87L96.44 658.87L96.44 708.87L53.13 733.87L9.83 708.87L9.83 658.87zM139.74 183.87L183.04 208.87L183.04 258.87L139.74 283.87L96.44 258.87L96.44 208.87zM96.44 408.87L139.74 433.87L139.74 483.87L96.44 508.87L53.13 483.87L53.13 433.87zM96.44 858.87L139.74 883.87L139.74 933.87L96.44 958.87L53.13 933.87L53.13 883.87zM139.74 933.87L183.04 958.87L183.04 1008.87L139.74 1033.87L96.44 1008.87L96.44 958.87zM183.04 -41.13L226.34 -16.13L226.34 33.87L183.04 58.87L139.74 33.87L139.74 -16.13zM226.34 33.87L269.64 58.87L269.64 108.87L226.34 133.87L183.04 108.87L183.04 58.87zM183.04 108.87L226.34 133.87L226.34 183.87L183.04 208.87L139.74 183.87L139.74 133.87zM226.34 333.87L269.64 358.87L269.64 408.87L226.34 433.87L183.04 408.87L183.04 358.87zM226.34 633.87L269.64 658.87L269.64 708.87L226.34 733.87L183.04 708.87L183.04 658.87zM183.04 708.87L226.34 733.87L226.34 783.87L183.04 808.87L139.74 783.87L139.74 733.87zM226.34 783.87L269.64 808.87L269.64 858.87L226.34 883.87L183.04 858.87L183.04 808.87zM183.04 858.87L226.34 883.87L226.34 933.87L183.04 958.87L139.74 933.87L139.74 883.87zM269.64 108.87L312.95 133.87L312.95 183.87L269.64 208.87L226.34 183.87L226.34 133.87zM269.64 408.87L312.95 433.87L312.95 483.87L269.64 508.87L226.34 483.87L226.34 433.87zM312.95 633.87L356.25 658.87L356.25 708.87L312.95 733.87L269.64 708.87L269.64 658.87zM269.64 858.87L312.95 883.87L312.95 933.87L269.64 958.87L226.34 933.87L226.34 883.87zM312.95 933.87L356.25 958.87L356.25 1008.87L312.95 1033.87L269.64 1008.87L269.64 958.87zM269.64 1008.87L312.95 1033.87L312.95 1083.87L269.64 1108.87L226.34 1083.87L226.34 1033.87zM399.55 33.87L442.86 58.87L442.86 108.87L399.55 133.87L356.25 108.87L356.25 58.87zM356.25 108.87L399.55 133.87L399.55 183.87L356.25 208.87L312.95 183.87L312.95 133.87zM356.25 258.87L399.55 283.87L399.55 333.87L356.25 358.87L312.95 333.87L312.95 283.87zM399.55 333.87L442.86 358.87L442.86 408.87L399.55 433.87L356.25 408.87L356.25 358.87zM356.25 558.87L399.55 583.87L399.55 633.87L356.25 658.87L312.95 633.87L312.95 583.87zM356.25 708.87L399.55 733.87L399.55 783.87L356.25 808.87L312.95 783.87L312.95 733.87zM356.25 1008.87L399.55 1033.87L399.55 1083.87L356.25 1108.87L312.95 1083.87L312.95 1033.87zM442.86 -41.13L486.16 -16.13L486.16 33.87L442.86 58.87L399.55 33.87L399.55 -16.13zM486.16 183.87L529.46 208.87L529.46 258.87L486.16 283.87L442.86 258.87L442.86 208.87zM442.86 558.87L486.16 583.87L486.16 633.87L442.86 658.87L399.55 633.87L399.55 583.87zM442.86 708.87L486.16 733.87L486.16 783.87L442.86 808.87L399.55 783.87L399.55 733.87zM442.86 858.87L486.16 883.87L486.16 933.87L442.86 958.87L399.55 933.87L399.55 883.87zM486.16 933.87L529.46 958.87L529.46 1008.87L486.16 1033.87L442.86 1008.87L442.86 958.87zM572.76 33.87L616.07 58.87L616.07 108.87L572.76 133.87L529.46 108.87L529.46 58.87zM529.46 558.87L572.76 583.87L572.76 633.87L529.46 658.87L486.16 633.87L486.16 583.87zM529.46 708.87L572.76 733.87L572.76 783.87L529.46 808.87L486.16 783.87L486.16 733.87zM572.76 783.87L616.07 808.87L616.07 858.87L572.76 883.87L529.46 858.87L529.46 808.87zM659.37 33.87L702.67 58.87L702.67 108.87L659.37 133.87L616.07 108.87L616.07 58.87zM616.07 108.87L659.37 133.87L659.37 183.87L616.07 208.87L572.76 183.87L572.76 133.87zM616.07 408.87L659.37 433.87L659.37 483.87L616.07 508.87L572.76 483.87L572.76 433.87zM616.07 558.87L659.37 583.87L659.37 633.87L616.07 658.87L572.76 633.87L572.76 583.87zM659.37 633.87L702.67 658.87L702.67 708.87L659.37 733.87L616.07 708.87L616.07 658.87zM659.37 783.87L702.67 808.87L702.67 858.87L659.37 883.87L616.07 858.87L616.07 808.87zM616.07 858.87L659.37 883.87L659.37 933.87L616.07 958.87L572.76 933.87L572.76 883.87zM616.07 1008.87L659.37 1033.87L659.37 1083.87L616.07 1108.87L572.76 1083.87L572.76 1033.87zM702.67 108.87L745.97 133.87L745.97 183.87L702.67 208.87L659.37 183.87L659.37 133.87zM702.67 408.87L745.97 433.87L745.97 483.87L702.67 508.87L659.37 483.87L659.37 433.87zM702.67 558.87L745.97 583.87L745.97 633.87L702.67 658.87L659.37 633.87L659.37 583.87zM745.97 633.87L789.28 658.87L789.28 708.87L745.97 733.87L702.67 708.87L702.67 658.87zM745.97 783.87L789.28 808.87L789.28 858.87L745.97 883.87L702.67 858.87L702.67 808.87zM745.97 933.87L789.28 958.87L789.28 1008.87L745.97 1033.87L702.67 1008.87L702.67 958.87zM832.58 333.87L875.88 358.87L875.88 408.87L832.58 433.87L789.28 408.87L789.28 358.87zM789.28 408.87L832.58 433.87L832.58 483.87L789.28 508.87L745.97 483.87L745.97 433.87zM832.58 483.87L875.88 508.87L875.88 558.87L832.58 583.87L789.28 558.87L789.28 508.87zM789.28 558.87L832.58 583.87L832.58 633.87L789.28 658.87L745.97 633.87L745.97 583.87zM832.58 633.87L875.88 658.87L875.88 708.87L832.58 733.87L789.28 708.87L789.28 658.87zM789.28 708.87L832.58 733.87L832.58 783.87L789.28 808.87L745.97 783.87L745.97 733.87zM789.28 858.87L832.58 883.87L832.58 933.87L789.28 958.87L745.97 933.87L745.97 883.87zM789.28 1008.87L832.58 1033.87L832.58 1083.87L789.28 1108.87L745.97 1083.87L745.97 1033.87zM875.88 108.87L919.18 133.87L919.18 183.87L875.88 208.87L832.58 183.87L832.58 133.87zM919.18 183.87L962.49 208.87L962.49 258.87L919.18 283.87L875.88 258.87L875.88 208.87zM875.88 258.87L919.18 283.87L919.18 333.87L875.88 358.87L832.58 333.87L832.58 283.87zM875.88 408.87L919.18 433.87L919.18 483.87L875.88 508.87L832.58 483.87L832.58 433.87zM875.88 558.87L919.18 583.87L919.18 633.87L875.88 658.87L832.58 633.87L832.58 583.87zM875.88 708.87L919.18 733.87L919.18 783.87L875.88 808.87L832.58 783.87L832.58 733.87zM875.88 1008.87L919.18 1033.87L919.18 1083.87L875.88 1108.87L832.58 1083.87L832.58 1033.87zM962.49 -41.13L1005.79 -16.13L1005.79 33.87L962.49 58.87L919.18 33.87L919.18 -16.13zM962.49 108.87L1005.79 133.87L1005.79 183.87L962.49 208.87L919.18 183.87L919.18 133.87zM962.49 258.87L1005.79 283.87L1005.79 333.87L962.49 358.87L919.18 333.87L919.18 283.87zM1005.79 333.87L1049.09 358.87L1049.09 408.87L1005.79 433.87L962.49 408.87L962.49 358.87zM1005.79 483.87L1049.09 508.87L1049.09 558.87L1005.79 583.87L962.49 558.87L962.49 508.87zM1005.79 633.87L1049.09 658.87L1049.09 708.87L1005.79 733.87L962.49 708.87L962.49 658.87zM1005.79 783.87L1049.09 808.87L1049.09 858.87L1005.79 883.87L962.49 858.87L962.49 808.87zM1005.79 933.87L1049.09 958.87L1049.09 1008.87L1005.79 1033.87L962.49 1008.87L962.49 958.87zM1049.09 -41.13L1092.39 -16.13L1092.39 33.87L1049.09 58.87L1005.79 33.87L1005.79 -16.13zM1092.39 33.87L1135.69 58.87L1135.69 108.87L1092.39 133.87L1049.09 108.87L1049.09 58.87zM1092.39 183.87L1135.69 208.87L1135.69 258.87L1092.39 283.87L1049.09 258.87L1049.09 208.87zM1049.09 408.87L1092.39 433.87L1092.39 483.87L1049.09 508.87L1005.79 483.87L1005.79 433.87zM1092.39 483.87L1135.69 508.87L1135.69 558.87L1092.39 583.87L1049.09 558.87L1049.09 508.87zM1049.09 558.87L1092.39 583.87L1092.39 633.87L1049.09 658.87L1005.79 633.87L1005.79 583.87zM1092.39 633.87L1135.69 658.87L1135.69 708.87L1092.39 733.87L1049.09 708.87L1049.09 658.87zM1092.39 783.87L1135.69 808.87L1135.69 858.87L1092.39 883.87L1049.09 858.87L1049.09 808.87zM1049.09 858.87L1092.39 883.87L1092.39 933.87L1049.09 958.87L1005.79 933.87L1005.79 883.87zM1179 33.87L1222.3 58.87L1222.3 108.87L1179 133.87L1135.69 108.87L1135.69 58.87zM1135.69 108.87L1179 133.87L1179 183.87L1135.69 208.87L1092.39 183.87L1092.39 133.87zM1135.69 408.87L1179 433.87L1179 483.87L1135.69 508.87L1092.39 483.87L1092.39 433.87zM1135.69 558.87L1179 583.87L1179 633.87L1135.69 658.87L1092.39 633.87L1092.39 583.87zM1179 633.87L1222.3 658.87L1222.3 708.87L1179 733.87L1135.69 708.87L1135.69 658.87zM1179 933.87L1222.3 958.87L1222.3 1008.87L1179 1033.87L1135.69 1008.87L1135.69 958.87zM1222.3 -41.13L1265.6 -16.13L1265.6 33.87L1222.3 58.87L1179 33.87L1179 -16.13zM1222.3 108.87L1265.6 133.87L1265.6 183.87L1222.3 208.87L1179 183.87L1179 133.87zM1265.6 183.87L1308.9 208.87L1308.9 258.87L1265.6 283.87L1222.3 258.87L1222.3 208.87zM1265.6 333.87L1308.9 358.87L1308.9 408.87L1265.6 433.87L1222.3 408.87L1222.3 358.87zM1222.3 408.87L1265.6 433.87L1265.6 483.87L1222.3 508.87L1179 483.87L1179 433.87zM1265.6 483.87L1308.9 508.87L1308.9 558.87L1265.6 583.87L1222.3 558.87L1222.3 508.87zM1222.3 558.87L1265.6 583.87L1265.6 633.87L1222.3 658.87L1179 633.87L1179 583.87zM1265.6 633.87L1308.9 658.87L1308.9 708.87L1265.6 733.87L1222.3 708.87L1222.3 658.87zM1222.3 858.87L1265.6 883.87L1265.6 933.87L1222.3 958.87L1179 933.87L1179 883.87zM1352.21 33.87L1395.51 58.87L1395.51 108.87L1352.21 133.87L1308.9 108.87L1308.9 58.87zM1352.21 183.87L1395.51 208.87L1395.51 258.87L1352.21 283.87L1308.9 258.87L1308.9 208.87zM1308.9 258.87L1352.21 283.87L1352.21 333.87L1308.9 358.87L1265.6 333.87L1265.6 283.87zM1352.21 333.87L1395.51 358.87L1395.51 408.87L1352.21 433.87L1308.9 408.87L1308.9 358.87zM1308.9 558.87L1352.21 583.87L1352.21 633.87L1308.9 658.87L1265.6 633.87L1265.6 583.87zM1308.9 708.87L1352.21 733.87L1352.21 783.87L1308.9 808.87L1265.6 783.87L1265.6 733.87zM1352.21 783.87L1395.51 808.87L1395.51 858.87L1352.21 883.87L1308.9 858.87L1308.9 808.87zM1308.9 858.87L1352.21 883.87L1352.21 933.87L1308.9 958.87L1265.6 933.87L1265.6 883.87zM1352.21 933.87L1395.51 958.87L1395.51 1008.87L1352.21 1033.87L1308.9 1008.87L1308.9 958.87zM1438.81 33.87L1482.12 58.87L1482.12 108.87L1438.81 133.87L1395.51 108.87L1395.51 58.87zM1395.51 108.87L1438.81 133.87L1438.81 183.87L1395.51 208.87L1352.21 183.87L1352.21 133.87zM1438.81 183.87L1482.12 208.87L1482.12 258.87L1438.81 283.87L1395.51 258.87L1395.51 208.87zM1395.51 258.87L1438.81 283.87L1438.81 333.87L1395.51 358.87L1352.21 333.87L1352.21 283.87zM1438.81 483.87L1482.12 508.87L1482.12 558.87L1438.81 583.87L1395.51 558.87L1395.51 508.87zM1438.81 633.87L1482.12 658.87L1482.12 708.87L1438.81 733.87L1395.51 708.87L1395.51 658.87zM1438.81 783.87L1482.12 808.87L1482.12 858.87L1438.81 883.87L1395.51 858.87L1395.51 808.87zM1438.81 933.87L1482.12 958.87L1482.12 1008.87L1438.81 1033.87L1395.51 1008.87L1395.51 958.87zM1482.12 -41.13L1525.42 -16.13L1525.42 33.87L1482.12 58.87L1438.81 33.87L1438.81 -16.13zM1525.42 333.87L1568.72 358.87L1568.72 408.87L1525.42 433.87L1482.12 408.87L1482.12 358.87zM1482.12 408.87L1525.42 433.87L1525.42 483.87L1482.12 508.87L1438.81 483.87L1438.81 433.87zM1525.42 633.87L1568.72 658.87L1568.72 708.87L1525.42 733.87L1482.12 708.87L1482.12 658.87zM1525.42 783.87L1568.72 808.87L1568.72 858.87L1525.42 883.87L1482.12 858.87L1482.12 808.87zM1568.72 -41.13L1612.02 -16.13L1612.02 33.87L1568.72 58.87L1525.42 33.87L1525.42 -16.13zM1612.02 33.87L1655.33 58.87L1655.33 108.87L1612.02 133.87L1568.72 108.87L1568.72 58.87zM1612.02 183.87L1655.33 208.87L1655.33 258.87L1612.02 283.87L1568.72 258.87L1568.72 208.87zM1612.02 333.87L1655.33 358.87L1655.33 408.87L1612.02 433.87L1568.72 408.87L1568.72 358.87zM1612.02 483.87L1655.33 508.87L1655.33 558.87L1612.02 583.87L1568.72 558.87L1568.72 508.87zM1568.72 558.87L1612.02 583.87L1612.02 633.87L1568.72 658.87L1525.42 633.87L1525.42 583.87zM1568.72 708.87L1612.02 733.87L1612.02 783.87L1568.72 808.87L1525.42 783.87L1525.42 733.87zM1612.02 933.87L1655.33 958.87L1655.33 1008.87L1612.02 1033.87L1568.72 1008.87L1568.72 958.87zM1698.63 33.87L1741.93 58.87L1741.93 108.87L1698.63 133.87L1655.33 108.87L1655.33 58.87zM1655.33 108.87L1698.63 133.87L1698.63 183.87L1655.33 208.87L1612.02 183.87L1612.02 133.87zM1698.63 183.87L1741.93 208.87L1741.93 258.87L1698.63 283.87L1655.33 258.87L1655.33 208.87zM1655.33 408.87L1698.63 433.87L1698.63 483.87L1655.33 508.87L1612.02 483.87L1612.02 433.87zM1698.63 483.87L1741.93 508.87L1741.93 558.87L1698.63 583.87L1655.33 558.87L1655.33 508.87zM1698.63 633.87L1741.93 658.87L1741.93 708.87L1698.63 733.87L1655.33 708.87L1655.33 658.87zM1655.33 708.87L1698.63 733.87L1698.63 783.87L1655.33 808.87L1612.02 783.87L1612.02 733.87zM1698.63 783.87L1741.93 808.87L1741.93 858.87L1698.63 883.87L1655.33 858.87L1655.33 808.87zM1785.23 33.87L1828.54 58.87L1828.54 108.87L1785.23 133.87L1741.93 108.87L1741.93 58.87zM1741.93 108.87L1785.23 133.87L1785.23 183.87L1741.93 208.87L1698.63 183.87L1698.63 133.87zM1785.23 183.87L1828.54 208.87L1828.54 258.87L1785.23 283.87L1741.93 258.87L1741.93 208.87zM1785.23 333.87L1828.54 358.87L1828.54 408.87L1785.23 433.87L1741.93 408.87L1741.93 358.87zM1741.93 408.87L1785.23 433.87L1785.23 483.87L1741.93 508.87L1698.63 483.87L1698.63 433.87zM1741.93 708.87L1785.23 733.87L1785.23 783.87L1741.93 808.87L1698.63 783.87L1698.63 733.87zM1785.23 783.87L1828.54 808.87L1828.54 858.87L1785.23 883.87L1741.93 858.87L1741.93 808.87zM1828.54 258.87L1871.84 283.87L1871.84 333.87L1828.54 358.87L1785.23 333.87L1785.23 283.87zM1828.54 408.87L1871.84 433.87L1871.84 483.87L1828.54 508.87L1785.23 483.87L1785.23 433.87zM1871.84 483.87L1915.14 508.87L1915.14 558.87L1871.84 583.87L1828.54 558.87L1828.54 508.87zM1828.54 558.87L1871.84 583.87L1871.84 633.87L1828.54 658.87L1785.23 633.87L1785.23 583.87zM1871.84 783.87L1915.14 808.87L1915.14 858.87L1871.84 883.87L1828.54 858.87L1828.54 808.87zM1828.54 858.87L1871.84 883.87L1871.84 933.87L1828.54 958.87L1785.23 933.87L1785.23 883.87zM1871.84 933.87L1915.14 958.87L1915.14 1008.87L1871.84 1033.87L1828.54 1008.87L1828.54 958.87zM1915.14 108.87L1958.44 133.87L1958.44 183.87L1915.14 208.87L1871.84 183.87L1871.84 133.87zM1958.44 183.87L2001.75 208.87L2001.75 258.87L1958.44 283.87L1915.14 258.87L1915.14 208.87zM1915.14 258.87L1958.44 283.87L1958.44 333.87L1915.14 358.87L1871.84 333.87L1871.84 283.87zM1958.44 333.87L2001.75 358.87L2001.75 408.87L1958.44 433.87L1915.14 408.87L1915.14 358.87zM1958.44 633.87L2001.75 658.87L2001.75 708.87L1958.44 733.87L1915.14 708.87L1915.14 658.87zM1958.44 783.87L2001.75 808.87L2001.75 858.87L1958.44 883.87L1915.14 858.87L1915.14 808.87zM2045.05 33.87L2088.35 58.87L2088.35 108.87L2045.05 133.87L2001.75 108.87L2001.75 58.87zM2001.75 108.87L2045.05 133.87L2045.05 183.87L2001.75 208.87L1958.44 183.87L1958.44 133.87zM2045.05 483.87L2088.35 508.87L2088.35 558.87L2045.05 583.87L2001.75 558.87L2001.75 508.87zM2001.75 558.87L2045.05 583.87L2045.05 633.87L2001.75 658.87L1958.44 633.87L1958.44 583.87zM2045.05 633.87L2088.35 658.87L2088.35 708.87L2045.05 733.87L2001.75 708.87L2001.75 658.87zM2001.75 858.87L2045.05 883.87L2045.05 933.87L2001.75 958.87L1958.44 933.87L1958.44 883.87zM2045.05 933.87L2088.35 958.87L2088.35 1008.87L2045.05 1033.87L2001.75 1008.87L2001.75 958.87zM2001.75 1008.87L2045.05 1033.87L2045.05 1083.87L2001.75 1108.87L1958.44 1083.87L1958.44 1033.87zM2131.65 183.87L2174.95 208.87L2174.95 258.87L2131.65 283.87L2088.35 258.87L2088.35 208.87zM2088.35 408.87L2131.65 433.87L2131.65 483.87L2088.35 508.87L2045.05 483.87L2045.05 433.87zM2131.65 633.87L2174.95 658.87L2174.95 708.87L2131.65 733.87L2088.35 708.87L2088.35 658.87zM2088.35 708.87L2131.65 733.87L2131.65 783.87L2088.35 808.87L2045.05 783.87L2045.05 733.87zM2088.35 1008.87L2131.65 1033.87L2131.65 1083.87L2088.35 1108.87L2045.05 1083.87L2045.05 1033.87zM2174.95 -41.13L2218.26 -16.13L2218.26 33.87L2174.95 58.87L2131.65 33.87L2131.65 -16.13zM2174.95 108.87L2218.26 133.87L2218.26 183.87L2174.95 208.87L2131.65 183.87L2131.65 133.87zM2218.26 183.87L2261.56 208.87L2261.56 258.87L2218.26 283.87L2174.95 258.87L2174.95 208.87zM2218.26 333.87L2261.56 358.87L2261.56 408.87L2218.26 433.87L2174.95 408.87L2174.95 358.87zM2218.26 483.87L2261.56 508.87L2261.56 558.87L2218.26 583.87L2174.95 558.87L2174.95 508.87zM2174.95 1008.87L2218.26 1033.87L2218.26 1083.87L2174.95 1108.87L2131.65 1083.87L2131.65 1033.87zM2261.56 -41.13L2304.86 -16.13L2304.86 33.87L2261.56 58.87L2218.26 33.87L2218.26 -16.13zM2304.86 33.87L2348.16 58.87L2348.16 108.87L2304.86 133.87L2261.56 108.87L2261.56 58.87zM2261.56 108.87L2304.86 133.87L2304.86 183.87L2261.56 208.87L2218.26 183.87L2218.26 133.87zM2304.86 183.87L2348.16 208.87L2348.16 258.87L2304.86 283.87L2261.56 258.87L2261.56 208.87zM2304.86 333.87L2348.16 358.87L2348.16 408.87L2304.86 433.87L2261.56 408.87L2261.56 358.87zM2261.56 408.87L2304.86 433.87L2304.86 483.87L2261.56 508.87L2218.26 483.87L2218.26 433.87zM2304.86 483.87L2348.16 508.87L2348.16 558.87L2304.86 583.87L2261.56 558.87L2261.56 508.87zM2261.56 558.87L2304.86 583.87L2304.86 633.87L2261.56 658.87L2218.26 633.87L2218.26 583.87zM2304.86 633.87L2348.16 658.87L2348.16 708.87L2304.86 733.87L2261.56 708.87L2261.56 658.87zM2261.56 708.87L2304.86 733.87L2304.86 783.87L2261.56 808.87L2218.26 783.87L2218.26 733.87zM2261.56 858.87L2304.86 883.87L2304.86 933.87L2261.56 958.87L2218.26 933.87L2218.26 883.87zM2261.56 1008.87L2304.86 1033.87L2304.86 1083.87L2261.56 1108.87L2218.26 1083.87L2218.26 1033.87zM2348.16 -41.13L2391.47 -16.13L2391.47 33.87L2348.16 58.87L2304.86 33.87L2304.86 -16.13zM2348.16 108.87L2391.47 133.87L2391.47 183.87L2348.16 208.87L2304.86 183.87L2304.86 133.87zM2348.16 408.87L2391.47 433.87L2391.47 483.87L2348.16 508.87L2304.86 483.87L2304.86 433.87zM2348.16 558.87L2391.47 583.87L2391.47 633.87L2348.16 658.87L2304.86 633.87L2304.86 583.87zM2391.47 633.87L2434.77 658.87L2434.77 708.87L2391.47 733.87L2348.16 708.87L2348.16 658.87zM2391.47 933.87L2434.77 958.87L2434.77 1008.87L2391.47 1033.87L2348.16 1008.87L2348.16 958.87zM2348.16 1008.87L2391.47 1033.87L2391.47 1083.87L2348.16 1108.87L2304.86 1083.87L2304.86 1033.87zM2478.07 33.87L2521.37 58.87L2521.37 108.87L2478.07 133.87L2434.77 108.87L2434.77 58.87zM2478.07 183.87L2521.37 208.87L2521.37 258.87L2478.07 283.87L2434.77 258.87L2434.77 208.87zM2434.77 258.87L2478.07 283.87L2478.07 333.87L2434.77 358.87L2391.47 333.87L2391.47 283.87zM2478.07 483.87L2521.37 508.87L2521.37 558.87L2478.07 583.87L2434.77 558.87L2434.77 508.87zM2478.07 783.87L2521.37 808.87L2521.37 858.87L2478.07 883.87L2434.77 858.87L2434.77 808.87zM2434.77 858.87L2478.07 883.87L2478.07 933.87L2434.77 958.87L2391.47 933.87L2391.47 883.87zM2434.77 1008.87L2478.07 1033.87L2478.07 1083.87L2434.77 1108.87L2391.47 1083.87L2391.47 1033.87zM2564.68 33.87L2607.98 58.87L2607.98 108.87L2564.68 133.87L2521.38 108.87L2521.38 58.87zM2521.38 108.87L2564.68 133.87L2564.68 183.87L2521.38 208.87L2478.07 183.87L2478.07 133.87zM2564.68 183.87L2607.98 208.87L2607.98 258.87L2564.68 283.87L2521.38 258.87L2521.38 208.87zM2521.38 408.87L2564.68 433.87L2564.68 483.87L2521.38 508.87L2478.07 483.87L2478.07 433.87zM2564.68 483.87L2607.98 508.87L2607.98 558.87L2564.68 583.87L2521.38 558.87L2521.38 508.87zM2521.38 858.87L2564.68 883.87L2564.68 933.87L2521.38 958.87L2478.07 933.87L2478.07 883.87zM2564.68 933.87L2607.98 958.87L2607.98 1008.87L2564.68 1033.87L2521.38 1008.87L2521.38 958.87z" stroke="rgba(6, 80, 156, 0.93)" stroke-width="2"></path></g><defs><mask id="SvgjsMask1003"><rect width="2560" height="1080" fill="#ffffff"></rect></mask></defs></svg>